<svg width="32" height="32" viewBox="0 0 32 32" fill="none" xmlns="http://www.w3.org/2000/svg">
<path d="M12.7118 2.93752C19.5355 2.92685 25.0868 8.43958 25.1219 15.2646C25.1571 21.925 19.5676 27.5337 12.9593 27.6191C6.40443 27.7029 0.391841 22.5697 0.375038 15.2478C0.358234 8.44263 5.92781 2.94818 12.7118 2.93752ZM10.2478 26.5812C14.1386 26.5781 17.3542 23.3897 17.3679 19.5214C17.3801 15.6807 14.1355 12.4267 10.2753 12.4114C6.34791 12.3947 3.16594 15.5816 3.16746 19.5291C3.16746 23.443 6.32193 26.5842 10.2463 26.5812H10.2478Z" fill="#1B78F3"/>
<path d="M28.006 21.8091C30.0728 21.8229 31.6417 23.4247 31.6249 25.5021C31.6081 27.5474 29.9812 29.1386 27.9174 29.1249C25.904 29.1127 24.2481 27.427 24.2726 25.4152C24.2986 23.3775 25.9346 21.7954 28.006 21.8091Z" fill="#1B78F3"/>
<path d="M25.1357 22.3152C23.9548 23.443 23.5699 24.7751 23.8128 26.3388C22.9482 26.1392 22.2684 25.7139 21.5978 25.2674C21.3366 25.0921 21.2632 24.9244 21.5382 24.6821C22.4181 23.9079 23.1376 22.9964 23.7456 22.0012C23.9167 21.7207 24.0511 21.6613 24.326 21.8671C24.543 22.0301 24.8027 22.1353 25.1357 22.3152Z" fill="#1B78F3"/>
<path d="M16.0847 19.4894C16.1031 22.6931 13.5046 25.3192 10.2967 25.339C7.02921 25.3603 4.41092 22.777 4.40175 19.5245C4.39411 16.2842 6.93449 13.7191 10.1837 13.6902C13.4573 13.6612 16.0664 16.2233 16.0832 19.4879L16.0847 19.4894ZM10.2738 16.935C8.81036 16.9213 7.64024 18.0659 7.64177 19.5123C7.6433 20.8962 8.82106 22.0911 10.205 22.114C11.586 22.1353 12.8004 20.9648 12.831 19.5824C12.8631 18.1238 11.7296 16.9503 10.2753 16.9365L10.2738 16.935Z" fill="#1B78F3"/>
<path d="M11.67 19.5032C11.6761 20.2576 11.0498 20.9008 10.286 20.9206C9.47487 20.9419 8.82868 20.3186 8.82716 19.5138C8.82716 18.7015 9.45653 18.0812 10.2753 18.0918C11.0361 18.101 11.6639 18.7365 11.6715 19.5032H11.67Z" fill="#1B78F3"/>
</svg>
