<svg width="73" height="37" viewBox="0 0 73 37" fill="none" xmlns="http://www.w3.org/2000/svg">
<path d="M3.89572 18.2826C3.89572 20.4121 3.89124 22.5424 3.89751 24.6719C3.90289 26.5166 4.854 27.75 6.59757 28.1726C7.13453 28.3032 7.68404 28.3667 8.23804 28.3667C10.4773 28.3667 12.7175 28.3585 14.9568 28.3703C16.2638 28.3766 17.1011 29.3062 16.9809 30.5786C16.8886 31.55 16.0738 32.29 15.0563 32.2927C12.7417 32.3009 10.428 32.2936 8.11343 32.2964C7.36581 32.2964 6.62536 32.2365 5.88669 32.1122C2.35385 31.5164 0.107393 29.0314 0.0455395 25.4038C-0.0315537 20.8583 0.0105786 16.311 0.0195429 11.7646C0.0213358 10.7207 0.907011 9.89995 1.94687 9.89814C2.98584 9.89633 3.86524 10.7017 3.87869 11.7582C3.90558 13.933 3.88675 16.1078 3.88675 18.2835L3.89572 18.2826Z" fill="#F5F9FF"/>
<path d="M61.9012 9.19909e-06C65.9056 -0.00633924 69.1632 3.27399 69.1838 7.33518C69.2044 11.2984 65.9244 14.6359 62.0464 14.6867C58.1998 14.7366 54.6715 11.6821 54.6616 7.32521C54.6517 3.27581 57.9201 0.00635764 61.9012 9.19909e-06ZM60.4552 14.0691C62.7385 14.0673 64.6255 12.17 64.6335 9.86821C64.6407 7.58277 62.7367 5.6465 60.4714 5.63743C58.1667 5.62745 56.2994 7.52382 56.3003 9.87275C56.3003 12.2017 58.1523 14.0709 60.4552 14.0691Z" fill="#1B78F3"/>
<path d="M71.2035 28.8691C70.0543 30.6068 68.646 31.7712 66.7715 32.2746C63.2682 33.216 59.4396 31.3522 57.8188 27.9468C57.2926 26.8403 57.03 25.6758 57.0309 24.4479C57.0327 22.2268 57.0309 20.0049 57.0318 17.7838C57.0318 17.1018 57.3518 16.7073 57.9031 16.6991C58.4625 16.691 58.8094 17.1072 58.8094 17.8047C58.8112 20.0411 58.8085 22.2776 58.8103 24.5141C58.8139 27.8026 61.2746 30.4299 64.6192 30.7201C67.7074 30.9877 70.5993 28.6714 71.1246 25.5198C71.1846 25.1598 71.2062 24.8007 71.2062 24.4379C71.2062 22.2014 71.2026 19.965 71.2089 17.7285C71.2106 16.9413 71.8489 16.4788 72.4854 16.7907C72.8664 16.9776 72.9901 17.3113 72.9883 17.724C72.982 19.341 72.9856 20.958 72.9856 22.5742C72.9856 24.7199 72.9945 26.8657 72.9838 29.0115C72.9614 33.3275 69.4985 36.8944 65.244 36.9987C64.872 37.0078 64.5197 36.9761 64.283 36.6396C64.0768 36.3467 64.0428 36.0256 64.2041 35.6982C64.3861 35.3309 64.7088 35.1976 65.0907 35.1985C65.9871 35.2012 66.8459 35.0198 67.6446 34.6172C69.8131 33.5243 71.0036 31.7495 71.2008 29.3008C71.2089 29.2019 71.2017 29.1013 71.2017 28.8682L71.2035 28.8691Z" fill="#F5F9FF"/>
<path d="M32.8317 28.6687C32.2185 29.6064 31.574 30.3292 30.786 30.9133C27.9918 32.9856 23.9839 32.7471 21.3367 30.2821C18.9119 28.0239 18.071 25.1979 18.9746 22.0073C19.8845 18.7914 22.1076 16.8488 25.3671 16.2684C30.1433 15.4168 34.5591 19.2204 34.6075 24.1713C34.6299 26.4222 34.6129 28.6741 34.6102 30.9251C34.6102 31.5862 34.2624 32.0043 33.7254 32.0098C33.1822 32.0143 32.8344 31.6017 32.8317 30.9441C32.8299 30.2349 32.8317 29.5248 32.8317 28.6687ZM20.425 24.2456C20.425 27.7645 23.1771 30.575 26.6221 30.5723C30.0635 30.5696 32.8299 27.7527 32.8317 24.2483C32.8335 20.7358 30.0088 17.8482 26.6015 17.879C23.1556 17.9099 20.4259 20.7241 20.425 24.2456Z" fill="#F5F9FF"/>
<path d="M47.007 27.8407C47.059 26.6598 46.9236 25.2079 47.0778 23.7613C47.4426 20.3277 50.3641 17.3095 53.7562 16.856C54.1569 16.8025 54.5567 16.7681 54.9601 16.7744C55.5374 16.7844 55.9121 17.1 55.9408 17.607C55.9704 18.1257 55.6064 18.5121 55.013 18.5465C54.3712 18.5837 53.7365 18.6372 53.1179 18.8367C50.5774 19.6566 48.8473 21.913 48.7935 24.6093C48.7451 27.0253 48.7783 29.4432 48.7711 31.8601C48.7693 32.5911 48.2324 33.0364 47.6076 32.8206C47.1692 32.6691 47.0016 32.3263 47.0043 31.8692C47.0105 30.6149 47.007 29.3625 47.007 27.8407Z" fill="#F5F9FF"/>
<path d="M37.5308 27.9268C37.5684 26.7868 37.4716 25.3675 37.5792 23.95C37.8391 20.4991 40.8207 17.3204 44.2217 16.8633C44.6673 16.8034 45.111 16.7581 45.5592 16.7771C46.0567 16.798 46.4171 17.1499 46.4386 17.626C46.4583 18.0677 46.1347 18.4613 45.6632 18.5284C45.2356 18.5892 44.799 18.5892 44.3759 18.6653C41.5154 19.1796 39.3882 21.6146 39.3129 24.5667C39.2501 27.0108 39.2941 29.4586 39.286 31.9046C39.2833 32.6083 38.697 33.0564 38.091 32.8133C37.6805 32.6482 37.5272 32.3118 37.5299 31.8755C37.5361 30.6521 37.5326 29.4296 37.5326 27.9286L37.5308 27.9268Z" fill="#F5F9FF"/>
<path d="M70.8763 11.2295C72.0891 11.2377 73.0098 12.1908 72.9999 13.427C72.9901 14.6441 72.0354 15.5909 70.8243 15.5827C69.6428 15.5755 68.6711 14.5724 68.6854 13.3753C68.7006 12.1627 69.6607 11.2213 70.8763 11.2295Z" fill="#1B78F3"/>
<path d="M69.1919 11.5306C68.4989 12.2017 68.273 12.9944 68.4156 13.9249C67.9082 13.8061 67.5093 13.553 67.1157 13.2873C66.9624 13.183 66.9194 13.0832 67.0808 12.939C67.5971 12.4783 68.0193 11.936 68.3761 11.3438C68.4765 11.1769 68.5554 11.1415 68.7168 11.264C68.8441 11.361 68.9965 11.4236 69.1919 11.5306Z" fill="#1B78F3"/>
<path d="M63.8805 9.84916C63.8913 11.7555 62.3664 13.3181 60.4839 13.3299C58.5665 13.3426 57.03 11.8054 57.0246 9.87002C57.0201 7.94191 58.5109 6.41556 60.4176 6.39833C62.3386 6.3811 63.8698 7.90563 63.8796 9.84826L63.8805 9.84916ZM60.4705 8.32917C59.6117 8.321 58.925 9.0021 58.9259 9.86277C58.9268 10.6863 59.618 11.3973 60.4301 11.4109C61.2405 11.4236 61.9532 10.7271 61.9711 9.90449C61.9899 9.03656 61.3248 8.33824 60.4714 8.33007L60.4705 8.32917Z" fill="#1B78F3"/>
<path d="M61.2898 9.85733C61.2934 10.3063 60.9259 10.689 60.4777 10.7008C60.0016 10.7135 59.6225 10.3425 59.6216 9.86368C59.6216 9.38029 59.9909 9.01117 60.4714 9.01752C60.9178 9.02296 61.2853 9.40115 61.2898 9.85733Z" fill="#1B78F3"/>
</svg>
